<?xml version="1.0" encoding="utf-8"?>
<!-- Generator: Adobe Illustrator 21.0.2, SVG Export Plug-In . SVG Version: 6.00 Build 0)  -->
<svg version="1.1" id="Capa_1" xmlns="http://www.w3.org/2000/svg" xmlns:xlink="http://www.w3.org/1999/xlink" x="0px" y="0px"
	 viewBox="0 0 512 512" style="enable-background:new 0 0 512 512;" xml:space="preserve">
<style type="text/css">
	.st0{fill:#9C969E;}
	.st1{fill:#C9C6CA;}
	.st2{fill:#867E88;}
	.st3{fill:#F74A41;}
	.st4{fill:#E83A3A;}
	.st5{fill:#FFFFFF;}
</style>
<g>
	<path class="st0" d="M239.7,146.3c-4.5,0-8.1-3.6-8.1-8.1V8.1c0-4.5,3.6-8.1,8.1-8.1s8.1,3.6,8.1,8.1v130
		C247.9,142.6,244.2,146.3,239.7,146.3z"/>
	<path class="st0" d="M272.3,146.3c-4.5,0-8.1-3.6-8.1-8.1V8.1c0-4.5,3.6-8.1,8.1-8.1s8.1,3.6,8.1,8.1v130
		C280.4,142.6,276.7,146.3,272.3,146.3z"/>
</g>
<path class="st1" d="M69.1,349.5c-2.7,0-5.4-1.4-7-3.9c-2.3-3.8-1.1-8.8,2.7-11.2l186.9-113.8c3.8-2.3,8.8-1.1,11.2,2.7
	c2.3,3.8,1.1,8.8-2.7,11.2L73.3,348.3C72,349.1,70.5,349.5,69.1,349.5z"/>
<path class="st2" d="M264.1,204.4v-25.6h-16.3v25.6c0,7.1,4.3,13.3,10.7,15.5c3.3,1.1,5.5,4.2,5.5,7.7c0,4.5-3.6,8.1-8.1,8.1
	s-8.1-3.6-8.1-8.1s-3.6-8.1-8.1-8.1s-8.1,3.6-8.1,8.1c0,13.4,10.9,24.4,24.4,24.4s24.4-10.9,24.4-24.4
	C280.4,217.1,273.7,207.8,264.1,204.4z"/>
<path class="st1" d="M442.9,349.5c-1.4,0-2.9-0.4-4.2-1.2L251.8,234.5c-3.8-2.3-5.1-7.3-2.7-11.2c2.3-3.8,7.3-5.1,11.2-2.7
	l186.9,113.8c3.8,2.3,5.1,7.3,2.7,11.2C448.3,348.1,445.7,349.5,442.9,349.5z"/>
<path class="st3" d="M451,512H61c-4.5,0-8.1-3.6-8.1-8.1V341.3c0-4.5,3.6-8.1,8.1-8.1h390c4.5,0,8.1,3.6,8.1,8.1v162.5
	C459.2,508.4,455.5,512,451,512z"/>
<circle class="st2" cx="256" cy="121.9" r="20.3"/>
<path class="st3" d="M276.2,130h-40.4c-5.8,0-9.8,6-7.5,11.3l17.4,40.6c1.3,3,4.2,4.9,7.5,4.9h5.5c3.3,0,6.2-1.9,7.5-4.9l17.4-40.6
	C286,136,282,130,276.2,130z"/>
<path class="st4" d="M260.9,182l-12.6-40.6c-1.7-5.4,1.2-11.3,5.4-11.3h-17.9c-5.8,0-9.8,6-7.5,11.3l17.4,40.6
	c1.3,3,4.2,4.9,7.5,4.9h5.5c1.6,0,3.1-0.5,4.4-1.3C262.2,184.8,261.4,183.5,260.9,182z"/>
<g>
	<path class="st5" d="M129.7,458.2l-5.1-16.7H99l-5.1,16.7H77.8l24.8-70.7h18.2l24.9,70.7H129.7z M121.1,429
		c-4.7-15.2-7.4-23.8-8-25.7c-0.6-2-1-3.6-1.3-4.7c-1.1,4.1-4.1,14.3-9.1,30.5H121.1z"/>
	<path class="st5" d="M212,458.2h-16.9l-25.5-35.7v35.7h-14.9v-70.4h14.9v34.1l25.2-34.1h15.9L185,421.6L212,458.2z"/>
	<path class="st5" d="M276.6,446.4h10.5v32.3h-14.4v-20.5h-51.8v-70.4h14.9v57.9h25.9v-57.9h14.9V446.4z"/>
	<path class="st5" d="M297.8,387.9h13.4v34l-0.2,9.1l-0.5,10.3h0.3l32.5-53.4h17.9v70.4h-13.3v-33.8c0-4.5,0.3-11.2,0.9-20.1h-0.4
		l-32.6,53.9h-18V387.9z"/>
	<path class="st5" d="M402.7,431.2l-16.5,27h-16.6l20-30.9c-4-1.6-7-4.1-9.1-7.4c-2.1-3.4-3.2-7.3-3.2-11.9c0-6.4,2.3-11.4,6.9-14.9
		c4.6-3.5,11.1-5.2,19.7-5.2h22.9v70.4h-14.9v-27H402.7z M411.9,400.1h-7.4c-3.8,0-6.8,0.7-9,2.1c-2.1,1.4-3.2,3.7-3.2,6.9
		c0,3.1,1,5.6,3.1,7.4c2.1,1.8,5.2,2.7,9.4,2.7h7V400.1z"/>
</g>
</svg>
