<?xml version="1.0" encoding="utf-8"?>
<!-- Generator: Adobe Illustrator 21.0.2, SVG Export Plug-In . SVG Version: 6.00 Build 0)  -->
<svg version="1.1" id="Capa_1" xmlns="http://www.w3.org/2000/svg" xmlns:xlink="http://www.w3.org/1999/xlink" x="0px" y="0px"
	 viewBox="0 0 512 512" style="enable-background:new 0 0 512 512;" xml:space="preserve">
<style type="text/css">
	.st0{fill:#9C969E;}
	.st1{fill:#C9C6CA;}
	.st2{fill:#867E88;}
	.st3{fill:#FFC350;}
	.st4{fill:#EAAC47;}
	.st5{fill:#FFFFFF;}
</style>
<g>
	<path class="st0" d="M239.7,146.3c-4.5,0-8.1-3.6-8.1-8.1V8.1c0-4.5,3.6-8.1,8.1-8.1s8.1,3.6,8.1,8.1v130
		C247.9,142.6,244.2,146.3,239.7,146.3z"/>
	<path class="st0" d="M272.3,146.3c-4.5,0-8.1-3.6-8.1-8.1V8.1c0-4.5,3.6-8.1,8.1-8.1s8.1,3.6,8.1,8.1v130
		C280.4,142.6,276.7,146.3,272.3,146.3z"/>
</g>
<path class="st1" d="M69.1,349.5c-2.7,0-5.4-1.4-7-3.9c-2.3-3.8-1.1-8.8,2.7-11.2l186.9-113.8c3.8-2.3,8.8-1.1,11.2,2.7
	c2.3,3.8,1.1,8.8-2.7,11.2L73.3,348.3C72,349.1,70.5,349.5,69.1,349.5z"/>
<path class="st2" d="M264.1,204.4v-25.6h-16.3v25.6c0,7.1,4.3,13.3,10.7,15.5c3.3,1.1,5.5,4.2,5.5,7.7c0,4.5-3.6,8.1-8.1,8.1
	s-8.1-3.6-8.1-8.1s-3.6-8.1-8.1-8.1s-8.1,3.6-8.1,8.1c0,13.4,10.9,24.4,24.4,24.4s24.4-10.9,24.4-24.4
	C280.4,217.1,273.7,207.8,264.1,204.4z"/>
<path class="st1" d="M442.9,349.5c-1.4,0-2.9-0.4-4.2-1.2L251.8,234.5c-3.8-2.3-5.1-7.3-2.7-11.2c2.3-3.8,7.3-5.1,11.2-2.7
	l186.9,113.8c3.8,2.3,5.1,7.3,2.7,11.2C448.3,348.1,445.7,349.5,442.9,349.5z"/>
<path class="st3" d="M451,512H61c-4.5,0-8.1-3.6-8.1-8.1V341.3c0-4.5,3.6-8.1,8.1-8.1h390c4.5,0,8.1,3.6,8.1,8.1v162.5
	C459.2,508.4,455.5,512,451,512z"/>
<circle class="st2" cx="256" cy="121.9" r="20.3"/>
<path class="st3" d="M276.2,130h-40.4c-5.8,0-9.8,6-7.5,11.3l17.4,40.6c1.3,3,4.2,4.9,7.5,4.9h5.5c3.3,0,6.2-1.9,7.5-4.9l17.4-40.6
	C286,136,282,130,276.2,130z"/>
<path class="st4" d="M260.9,182l-12.6-40.6c-1.7-5.4,1.2-11.3,5.4-11.3h-17.9c-5.8,0-9.8,6-7.5,11.3l17.4,40.6
	c1.3,3,4.2,4.9,7.5,4.9h5.5c1.6,0,3.1-0.5,4.4-1.3C262.2,184.8,261.4,183.5,260.9,182z"/>
<g>
	<path class="st5" d="M118.5,440.8h-9.7v-19.9H90.5v19.9h-9.8v-46h9.8v18h18.2v-18h9.7V440.8z"/>
	<path class="st5" d="M176.7,417.7c0,7.6-1.9,13.5-5.7,17.6s-9.2,6.1-16.2,6.1c-7.1,0-12.5-2-16.2-6.1c-3.8-4.1-5.7-10-5.7-17.6
		s1.9-13.5,5.7-17.6c3.8-4,9.2-6.1,16.3-6.1c7.1,0,12.5,2,16.2,6.1C174.8,404.2,176.7,410.1,176.7,417.7z M143.1,417.7
		c0,5.1,1,9,2.9,11.6s4.9,3.9,8.8,3.9c7.8,0,11.7-5.2,11.7-15.5c0-10.4-3.9-15.6-11.6-15.6c-3.9,0-6.8,1.3-8.8,3.9
		C144.1,408.7,143.1,412.6,143.1,417.7z"/>
	<path class="st5" d="M191.1,394.8h14.3c6.5,0,11.3,0.9,14.2,2.8c2.9,1.9,4.4,4.8,4.4,8.9c0,2.8-0.6,5-1.9,6.8
		c-1.3,1.8-3,2.8-5.1,3.2v0.3c2.9,0.7,5,1.9,6.3,3.7c1.3,1.8,1.9,4.2,1.9,7.1c0,4.2-1.5,7.5-4.5,9.8c-3,2.4-7.2,3.5-12.4,3.5h-17.2
		V394.8z M200.8,413h5.7c2.6,0,4.6-0.4,5.7-1.2c1.2-0.8,1.8-2.2,1.8-4.1c0-1.8-0.6-3-1.9-3.8s-3.3-1.1-6.1-1.1h-5.1V413z
		 M200.8,420.7v12h6.4c2.7,0,4.7-0.5,6-1.5c1.3-1,1.9-2.6,1.9-4.7c0-3.8-2.7-5.7-8.2-5.7H200.8z"/>
	<path class="st5" d="M239.2,394.8h8.8V417l-0.1,6l-0.3,6.8h0.2l21.3-34.9h11.7v46H272v-22.1c0-3,0.2-7.3,0.6-13.2h-0.3L251,440.8
		h-11.7V394.8z"/>
	<path class="st5" d="M334.9,440.8h-9.7v-19.9h-18.2v19.9h-9.8v-46h9.8v18h18.2v-18h9.7V440.8z"/>
	<path class="st5" d="M388.8,440.8h-11.1l-16.7-23.3v23.3h-9.8v-46h9.8v22.3l16.5-22.3H388l-16.8,22.1L388.8,440.8z"/>
	<path class="st5" d="M427.6,440.8l-3.3-11h-16.8l-3.3,11h-10.5l16.2-46.2h11.9l16.3,46.2H427.6z M422,421.7
		c-3.1-9.9-4.8-15.5-5.2-16.8s-0.7-2.3-0.8-3.1c-0.7,2.7-2.7,9.3-6,19.9H422z"/>
</g>
</svg>
