<?xml version="1.0" encoding="utf-8"?>
<!-- Generator: Adobe Illustrator 21.0.2, SVG Export Plug-In . SVG Version: 6.00 Build 0)  -->
<svg version="1.1" id="Capa_1" xmlns="http://www.w3.org/2000/svg" xmlns:xlink="http://www.w3.org/1999/xlink" x="0px" y="0px"
	 viewBox="0 0 512 512" style="enable-background:new 0 0 512 512;" xml:space="preserve">
<style type="text/css">
	.st0{fill:#9C969E;}
	.st1{fill:#C9C6CA;}
	.st2{fill:#867E88;}
	.st3{fill:#6D08AF;}
	.st4{fill:#530293;}
	.st5{enable-background:new    ;}
	.st6{fill:#FFFFFF;}
</style>
<g>
	<path class="st0" d="M239.7,146.3c-4.5,0-8.1-3.6-8.1-8.1V8.1c0-4.5,3.6-8.1,8.1-8.1s8.1,3.6,8.1,8.1v130
		C247.9,142.6,244.2,146.3,239.7,146.3z"/>
	<path class="st0" d="M272.3,146.3c-4.5,0-8.1-3.6-8.1-8.1V8.1c0-4.5,3.6-8.1,8.1-8.1s8.1,3.6,8.1,8.1v130
		C280.4,142.6,276.7,146.3,272.3,146.3z"/>
</g>
<path class="st1" d="M69.1,349.5c-2.7,0-5.4-1.4-7-3.9c-2.3-3.8-1.1-8.8,2.7-11.2l186.9-113.8c3.8-2.3,8.8-1.1,11.2,2.7
	c2.3,3.8,1.1,8.8-2.7,11.2L73.3,348.3C72,349.1,70.5,349.5,69.1,349.5z"/>
<path class="st2" d="M264.1,204.4v-25.6h-16.3v25.6c0,7.1,4.3,13.3,10.7,15.5c3.3,1.1,5.5,4.2,5.5,7.7c0,4.5-3.6,8.1-8.1,8.1
	s-8.1-3.6-8.1-8.1s-3.6-8.1-8.1-8.1s-8.1,3.6-8.1,8.1c0,13.4,10.9,24.4,24.4,24.4s24.4-10.9,24.4-24.4
	C280.4,217.1,273.7,207.8,264.1,204.4z"/>
<path class="st1" d="M442.9,349.5c-1.4,0-2.9-0.4-4.2-1.2L251.8,234.5c-3.8-2.3-5.1-7.3-2.7-11.2c2.3-3.8,7.3-5.1,11.2-2.7
	l186.9,113.8c3.8,2.3,5.1,7.3,2.7,11.2C448.3,348.1,445.7,349.5,442.9,349.5z"/>
<path class="st3" d="M451,512H61c-4.5,0-8.1-3.6-8.1-8.1V341.3c0-4.5,3.6-8.1,8.1-8.1h390c4.5,0,8.1,3.6,8.1,8.1v162.5
	C459.2,508.4,455.5,512,451,512z"/>
<circle class="st2" cx="256" cy="121.9" r="20.3"/>
<path class="st3" d="M276.2,130h-40.4c-5.8,0-9.8,6-7.5,11.3l17.4,40.6c1.3,3,4.2,4.9,7.5,4.9h5.5c3.3,0,6.2-1.9,7.5-4.9l17.4-40.6
	C286,136,282,130,276.2,130z"/>
<path class="st4" d="M260.9,182l-12.6-40.6c-1.7-5.4,1.2-11.3,5.4-11.3h-17.9c-5.8,0-9.8,6-7.5,11.3l17.4,40.6
	c1.3,3,4.2,4.9,7.5,4.9h5.5c1.6,0,3.1-0.5,4.4-1.3C262.2,184.8,261.4,183.5,260.9,182z"/>
<g class="st5">
	<path class="st6" d="M98.3,395.5c0,5.1-1.3,9-3.8,11.7s-6.2,4-11.1,4c-4.8,0-8.5-1.3-11-4c-2.6-2.7-3.8-6.6-3.8-11.7
		c0-5.1,1.3-9,3.8-11.6c2.5-2.7,6.2-4,11.1-4c4.9,0,8.5,1.3,11,4S98.3,390.4,98.3,395.5z M77.3,395.5c0,5.9,2.1,8.9,6.2,8.9
		c2.1,0,3.6-0.7,4.6-2.2c1-1.4,1.5-3.7,1.5-6.7c0-3-0.5-5.3-1.5-6.8s-2.6-2.2-4.6-2.2C79.4,386.6,77.3,389.6,77.3,395.5z"/>
	<path class="st6" d="M115.7,379.9h8v3.8h0.6c2.6,0,4.9,0.5,6.9,1.4c2,1,3.5,2.3,4.5,4.1c1.1,1.7,1.6,3.7,1.6,5.9
		c0,2.3-0.5,4.3-1.5,6.1s-2.5,3.1-4.5,4c-2,0.9-4.4,1.4-7.2,1.4h-0.3v4.7h-8v-4.7h-0.4c-2.8,0-5.2-0.5-7.2-1.4s-3.5-2.2-4.5-4
		s-1.5-3.8-1.5-6.2c0-2.3,0.5-4.3,1.6-6c1.1-1.8,2.6-3.1,4.5-4c1.9-0.9,4.2-1.3,6.7-1.3h0.8V379.9z M115.7,389.9h-0.5
		c-1.6,0-2.9,0.4-3.7,1.3c-0.9,0.9-1.3,2.1-1.3,3.8c0,1.9,0.4,3.2,1.3,4.1s2.1,1.2,3.8,1.2h0.4V389.9z M123.6,400.3h0.3
		c1.8,0,3.1-0.4,3.9-1.3s1.3-2.2,1.3-4c0-1.6-0.5-2.8-1.4-3.7c-0.9-0.9-2.2-1.3-3.8-1.3h-0.3V400.3z"/>
	<path class="st6" d="M142.1,380.3h7.4v13.1c0,1.4-0.1,4.2-0.3,8.4h0.2l12.2-21.5h10.2v30.5h-7.3v-12.8c0-1.9,0.1-4.8,0.4-8.7h-0.2
		l-12.3,21.5h-10.2V380.3z"/>
	<path class="st6" d="M203.3,404.1h6.4v16.3h-8v-9.5h-23.4v-30.5h8.3v23.8h8.5v-23.8h8.3V404.1z"/>
	<path class="st6" d="M213.8,380.3h7.4v13.1c0,1.4-0.1,4.2-0.3,8.4h0.2l12.2-21.5h10.2v30.5H236v-12.8c0-1.9,0.1-4.8,0.4-8.7h-0.2
		l-12.3,21.5h-10.2V380.3z"/>
	<path class="st6" d="M268.6,410.8l-1.5-5.7h-9.9l-1.5,5.7h-9.1l10-30.7h11l10.1,30.7H268.6z M265.4,398.4l-1.3-5
		c-0.3-1.1-0.7-2.6-1.1-4.3c-0.4-1.8-0.7-3-0.9-3.8c-0.1,0.7-0.4,1.9-0.7,3.5s-1.2,4.8-2.5,9.6H265.4z"/>
	<path class="st6" d="M307,410.8h-8.3v-23.8h-5.8c-0.3,3.5-0.7,7-1.3,10.6c-0.5,3.6-1,6.1-1.5,7.6c-0.5,1.4-1.1,2.6-1.8,3.5
		s-1.7,1.5-2.8,1.9c-1.1,0.4-2.4,0.7-4,0.7c-1.2,0-2.3-0.2-3.2-0.5v-6.4c0.8,0.3,1.5,0.4,2,0.4c0.7,0,1.3-0.3,1.7-0.9
		s0.7-1.6,1.1-3.1c0.3-1.5,0.8-4.2,1.3-8.1c0.6-3.9,1.1-8.1,1.6-12.4H307V410.8z"/>
	<path class="st6" d="M335.4,400.7c0,3.3-1.1,5.8-3.3,7.5c-2.2,1.7-5.4,2.6-9.5,2.6h-9v-30.5h8.3v10.9h0.4c4.3,0,7.5,0.8,9.7,2.4
		C334.3,395.2,335.4,397.6,335.4,400.7z M321.9,404.5h0.4c3.2,0,4.8-1.2,4.8-3.6c0-2.3-1.6-3.4-4.9-3.4h-0.3V404.5z"/>
	<path class="st6" d="M366.4,410.8h-8.3v-12.4h-9.6v12.4h-8.3v-30.5h8.3v11.3h9.6v-11.3h8.3V410.8z"/>
	<path class="st6" d="M394.8,400.7c0,3.3-1.1,5.8-3.3,7.5c-2.2,1.7-5.4,2.6-9.5,2.6h-9v-30.5h8.3v10.9h0.4c4.3,0,7.5,0.8,9.7,2.4
		C393.7,395.2,394.8,397.6,394.8,400.7z M381.3,404.5h0.3c3.2,0,4.8-1.2,4.8-3.6c0-2.3-1.6-3.5-4.9-3.5h-0.3V404.5z M405.9,410.8
		h-8.3v-30.5h8.3V410.8z"/>
	<path class="st6" d="M412.4,380.3h7.4v13.1c0,1.4-0.1,4.2-0.3,8.4h0.2l12.2-21.5H442v30.5h-7.3v-12.8c0-1.9,0.1-4.8,0.4-8.7h-0.2
		l-12.3,21.5h-10.2V380.3z M427.2,377.9c-3.3,0-5.8-0.6-7.5-1.9c-1.7-1.3-2.6-3.3-2.8-6h6.8c0.1,1.4,0.4,2.4,0.9,3
		c0.5,0.6,1.4,0.9,2.5,0.9c2.1,0,3.2-1.3,3.4-3.9h6.9C436.9,375.2,433.5,377.9,427.2,377.9z"/>
</g>
<g class="st5">
	<path class="st6" d="M196.6,481h-8v-9.5h-17.8v9.5h-8v-16.3h2.5c1.8-3.1,3.3-6.7,4.5-10.7c1.2-4.1,1.9-8.4,2.3-13h20.4v23.8h4.2
		V481z M184.1,464.7v-17h-5.4c-0.6,6-2.1,11.6-4.7,17H184.1z"/>
	<path class="st6" d="M200.7,440.9h7.4v13.1c0,1.4-0.1,4.2-0.3,8.4h0.2l12.2-21.5h10.2v30.5h-7.3v-12.8c0-1.9,0.1-4.8,0.4-8.7h-0.2
		l-12.3,21.5h-10.2V440.9z"/>
	<path class="st6" d="M262.8,471.5h-8.3v-23.8h-5.8c-0.3,3.5-0.7,7-1.3,10.6s-1,6.1-1.5,7.6c-0.5,1.4-1.1,2.6-1.8,3.5
		c-0.7,0.9-1.7,1.5-2.8,1.9c-1.1,0.4-2.4,0.7-4,0.7c-1.2,0-2.3-0.2-3.2-0.5v-6.4c0.8,0.3,1.5,0.4,2,0.4c0.7,0,1.3-0.3,1.7-0.9
		c0.4-0.6,0.7-1.6,1.1-3.1c0.3-1.5,0.8-4.2,1.3-8.1s1.1-8.1,1.6-12.4h21.1V471.5z"/>
	<path class="st6" d="M295.4,471.5h-8.3v-23.8h-5.8c-0.3,3.5-0.7,7-1.3,10.6c-0.5,3.6-1,6.1-1.5,7.6c-0.5,1.4-1.1,2.6-1.8,3.5
		s-1.7,1.5-2.8,1.9c-1.1,0.4-2.4,0.7-4,0.7c-1.2,0-2.3-0.2-3.2-0.5v-6.4c0.8,0.3,1.5,0.4,2,0.4c0.7,0,1.3-0.3,1.7-0.9
		s0.7-1.6,1.1-3.1c0.3-1.5,0.8-4.2,1.3-8.1c0.6-3.9,1.1-8.1,1.6-12.4h21.1V471.5z"/>
	<path class="st6" d="M320.1,471.5H302v-30.5h18.1v6.6h-9.9v4.8h9.1v6.6h-9.1v5.8h9.9V471.5z"/>
	<path class="st6" d="M347.6,450.6c0,3.4-1,6-3,7.9c-2,1.9-4.9,2.8-8.6,2.8h-2.3v10.1h-8.2v-30.5H336c3.9,0,6.8,0.8,8.7,2.5
		C346.7,445.1,347.6,447.5,347.6,450.6z M333.7,454.6h1.5c1.2,0,2.2-0.3,3-1c0.7-0.7,1.1-1.7,1.1-2.9c0-2.1-1.1-3.1-3.4-3.1h-2.1
		V454.6z"/>
</g>
</svg>
