<?xml version="1.0" encoding="utf-8"?>
<!-- Generator: Adobe Illustrator 21.0.2, SVG Export Plug-In . SVG Version: 6.00 Build 0)  -->
<svg version="1.1" id="Capa_1" xmlns="http://www.w3.org/2000/svg" xmlns:xlink="http://www.w3.org/1999/xlink" x="0px" y="0px"
	 viewBox="0 0 512 512" style="enable-background:new 0 0 512 512;" xml:space="preserve">
<style type="text/css">
	.st0{fill:#9C969E;}
	.st1{fill:#C9C6CA;}
	.st2{fill:#867E88;}
	.st3{fill:#0089D1;}
	.st4{fill:#0485B2;}
	.st5{enable-background:new    ;}
	.st6{fill:#FFFFFF;}
</style>
<g>
	<path class="st0" d="M239.7,146.3c-4.5,0-8.1-3.6-8.1-8.1V8.1c0-4.5,3.6-8.1,8.1-8.1s8.1,3.6,8.1,8.1v130
		C247.9,142.6,244.2,146.3,239.7,146.3z"/>
	<path class="st0" d="M272.3,146.3c-4.5,0-8.1-3.6-8.1-8.1V8.1c0-4.5,3.6-8.1,8.1-8.1s8.1,3.6,8.1,8.1v130
		C280.4,142.6,276.7,146.3,272.3,146.3z"/>
</g>
<path class="st1" d="M69.1,349.5c-2.7,0-5.4-1.4-7-3.9c-2.3-3.8-1.1-8.8,2.7-11.2l186.9-113.8c3.8-2.3,8.8-1.1,11.2,2.7
	c2.3,3.8,1.1,8.8-2.7,11.2L73.3,348.3C72,349.1,70.5,349.5,69.1,349.5z"/>
<path class="st2" d="M264.1,204.4v-25.6h-16.3v25.6c0,7.1,4.3,13.3,10.7,15.5c3.3,1.1,5.5,4.2,5.5,7.7c0,4.5-3.6,8.1-8.1,8.1
	s-8.1-3.6-8.1-8.1s-3.6-8.1-8.1-8.1s-8.1,3.6-8.1,8.1c0,13.4,10.9,24.4,24.4,24.4s24.4-10.9,24.4-24.4
	C280.4,217.1,273.7,207.8,264.1,204.4z"/>
<path class="st1" d="M442.9,349.5c-1.4,0-2.9-0.4-4.2-1.2L251.8,234.5c-3.8-2.3-5.1-7.3-2.7-11.2c2.3-3.8,7.3-5.1,11.2-2.7
	l186.9,113.8c3.8,2.3,5.1,7.3,2.7,11.2C448.3,348.1,445.7,349.5,442.9,349.5z"/>
<path class="st3" d="M451,512H61c-4.5,0-8.1-3.6-8.1-8.1V341.3c0-4.5,3.6-8.1,8.1-8.1h390c4.5,0,8.1,3.6,8.1,8.1v162.5
	C459.2,508.4,455.5,512,451,512z"/>
<circle class="st2" cx="256" cy="121.9" r="20.3"/>
<path class="st3" d="M276.2,130h-40.4c-5.8,0-9.8,6-7.5,11.3l17.4,40.6c1.3,3,4.2,4.9,7.5,4.9h5.5c3.3,0,6.2-1.9,7.5-4.9l17.4-40.6
	C286,136,282,130,276.2,130z"/>
<path class="st4" d="M260.9,182l-12.6-40.6c-1.7-5.4,1.2-11.3,5.4-11.3h-17.9c-5.8,0-9.8,6-7.5,11.3l17.4,40.6
	c1.3,3,4.2,4.9,7.5,4.9h5.5c1.6,0,3.1-0.5,4.4-1.3C262.2,184.8,261.4,183.5,260.9,182z"/>
<g class="st5">
	<path class="st6" d="M186.2,390l-14.3-23h18.4l7.1,13.2l7.3-13.2h18.4l-14.7,23l15.3,23.9h-18.4l-7.9-14.2l-7.9,14.2H171L186.2,390
		z"/>
	<path class="st6" d="M252.5,367v11.8c0,0.7,0,1.4,0,2.2c0,0.8-0.2,5.7-0.6,14.7l18.8-28.7h17.9V414h-14.4v-12.7
		c0-4.4,0.2-9.7,0.6-15.8L256,414h-18V367H252.5z"/>
	<path class="st6" d="M351.7,379.1h-15.5V414H320v-34.9h-15.5V367h47.1V379.1z"/>
</g>
<g class="st5">
	<path class="st6" d="M144.9,446.9v34.7h-12v-25.8h-9v25.8h-12v-34.7H144.9z"/>
	<path class="st6" d="M179.2,482.2c-1.8,0-3.3-0.3-4.7-0.9s-2.8-1.6-4.1-3.1h-0.6c0.4,2.4,0.6,3.9,0.6,4.5v13.9h-12v-49.7h9.7
		l1.7,4.4h0.6c2.2-3.3,5.3-5,9.2-5c3.8,0,6.8,1.6,9,4.8c2.2,3.2,3.3,7.5,3.3,13.1c0,5.6-1.1,10-3.4,13.2
		C186.2,480.6,183.1,482.2,179.2,482.2z M175.2,455.7c-1.8,0-3,0.6-3.7,1.9c-0.7,1.3-1.1,3.1-1.1,5.6v0.9c0,3,0.4,5.1,1.2,6.5
		c0.8,1.3,2,2,3.8,2c1.5,0,2.6-0.7,3.3-2c0.7-1.3,1-3.5,1-6.5c0-3-0.3-5.1-1-6.4C178,456.3,176.8,455.7,175.2,455.7z"/>
	<path class="st6" d="M237.1,464.2c0,5.7-1.5,10.1-4.6,13.3c-3,3.2-7.3,4.8-12.8,4.8c-5.3,0-9.4-1.6-12.6-4.9
		c-3.1-3.2-4.7-7.6-4.7-13.2c0-5.6,1.5-10,4.6-13.2c3-3.1,7.3-4.7,12.8-4.7c3.4,0,6.4,0.7,9,2.2c2.6,1.4,4.6,3.5,6,6.2
		S237.1,460.6,237.1,464.2z M214.6,464.2c0,3,0.4,5.2,1.2,6.8c0.8,1.6,2.1,2.3,4,2.3c1.9,0,3.2-0.8,3.9-2.3c0.8-1.6,1.1-3.8,1.1-6.8
		c0-3-0.4-5.2-1.2-6.7c-0.8-1.5-2.1-2.3-4-2.3c-1.8,0-3.2,0.7-3.9,2.2S214.6,461.2,214.6,464.2z"/>
	<path class="st6" d="M289.6,494.3h-10.5v-12.7h-22.9v12.7h-10.5v-21.6h3.1c1.8-3,3.3-6.8,4.5-11.3c1.2-4.5,2.1-9.3,2.5-14.5h28.6
		v25.8h5.1V494.3z M272.5,472.7v-16.9h-6.8c-0.4,2.8-0.9,5.4-1.5,8c-0.6,2.6-1.5,5.5-2.8,8.8H272.5z"/>
	<path class="st6" d="M322.4,481.6l-2.3-4.6h-0.2c-1.6,2-3.3,3.4-4.9,4.1s-3.8,1.1-6.5,1.1c-3.3,0-5.8-1-7.7-2.9
		c-1.9-2-2.8-4.7-2.8-8.3c0-3.7,1.3-6.4,3.9-8.2c2.6-1.8,6.3-2.8,11.2-3l5.8-0.2V459c0-2.9-1.4-4.3-4.2-4.3c-2.5,0-5.7,0.9-9.6,2.6
		l-3.5-7.9c4-2.1,9.1-3.1,15.3-3.1c4.4,0,7.9,1.1,10.3,3.3s3.7,5.3,3.7,9.2v22.7H322.4z M313.5,473.7c1.4,0,2.7-0.5,3.7-1.4
		c1-0.9,1.5-2.1,1.5-3.6v-2.7l-2.8,0.1c-3.9,0.1-5.9,1.6-5.9,4.3C310.1,472.7,311.3,473.7,313.5,473.7z"/>
	<path class="st6" d="M364.5,463.7v-16.8h11.7v16.8l10.8-16.8h12.8l-11.7,16.5l12.9,18.2h-13L376.2,464v17.6h-11.7V464l-11.8,17.6
		h-13l12.9-18.2l-11.7-16.5h12.8L364.5,463.7z"/>
</g>
</svg>
