<?xml version="1.0" encoding="utf-8"?>
<!-- Generator: Adobe Illustrator 21.0.2, SVG Export Plug-In . SVG Version: 6.00 Build 0)  -->
<svg version="1.1" id="Capa_1" xmlns="http://www.w3.org/2000/svg" xmlns:xlink="http://www.w3.org/1999/xlink" x="0px" y="0px"
	 viewBox="0 0 512 512" style="enable-background:new 0 0 512 512;" xml:space="preserve">
<style type="text/css">
	.st0{fill:#9C969E;}
	.st1{fill:#C9C6CA;}
	.st2{fill:#867E88;}
	.st3{fill:#7EB105;}
	.st4{fill:#719902;}
	.st5{enable-background:new    ;}
	.st6{fill:#FFFFFF;}
</style>
<g>
	<path class="st0" d="M239.7,146.3c-4.5,0-8.1-3.6-8.1-8.1V8.1c0-4.5,3.6-8.1,8.1-8.1s8.1,3.6,8.1,8.1v130
		C247.9,142.6,244.2,146.3,239.7,146.3z"/>
	<path class="st0" d="M272.3,146.3c-4.5,0-8.1-3.6-8.1-8.1V8.1c0-4.5,3.6-8.1,8.1-8.1s8.1,3.6,8.1,8.1v130
		C280.4,142.6,276.7,146.3,272.3,146.3z"/>
</g>
<path class="st1" d="M69.1,349.5c-2.7,0-5.4-1.4-7-3.9c-2.3-3.8-1.1-8.8,2.7-11.2l186.9-113.8c3.8-2.3,8.8-1.1,11.2,2.7
	c2.3,3.8,1.1,8.8-2.7,11.2L73.3,348.3C72,349.1,70.5,349.5,69.1,349.5z"/>
<path class="st2" d="M264.1,204.4v-25.6h-16.3v25.6c0,7.1,4.3,13.3,10.7,15.5c3.3,1.1,5.5,4.2,5.5,7.7c0,4.5-3.6,8.1-8.1,8.1
	s-8.1-3.6-8.1-8.1s-3.6-8.1-8.1-8.1s-8.1,3.6-8.1,8.1c0,13.4,10.9,24.4,24.4,24.4s24.4-10.9,24.4-24.4
	C280.4,217.1,273.7,207.8,264.1,204.4z"/>
<path class="st1" d="M442.9,349.5c-1.4,0-2.9-0.4-4.2-1.2L251.8,234.5c-3.8-2.3-5.1-7.3-2.7-11.2c2.3-3.8,7.3-5.1,11.2-2.7
	l186.9,113.8c3.8,2.3,5.1,7.3,2.7,11.2C448.3,348.1,445.7,349.5,442.9,349.5z"/>
<path class="st3" d="M451,512H61c-4.5,0-8.1-3.6-8.1-8.1V341.3c0-4.5,3.6-8.1,8.1-8.1h390c4.5,0,8.1,3.6,8.1,8.1v162.5
	C459.2,508.4,455.5,512,451,512z"/>
<circle class="st2" cx="256" cy="121.9" r="20.3"/>
<path class="st3" d="M276.2,130h-40.4c-5.8,0-9.8,6-7.5,11.3l17.4,40.6c1.3,3,4.2,4.9,7.5,4.9h5.5c3.3,0,6.2-1.9,7.5-4.9l17.4-40.6
	C286,136,282,130,276.2,130z"/>
<path class="st4" d="M260.9,182l-12.6-40.6c-1.7-5.4,1.2-11.3,5.4-11.3h-17.9c-5.8,0-9.8,6-7.5,11.3l17.4,40.6
	c1.3,3,4.2,4.9,7.5,4.9h5.5c1.6,0,3.1-0.5,4.4-1.3C262.2,184.8,261.4,183.5,260.9,182z"/>
<g class="st5">
	<path class="st6" d="M197,398.3h9.3v23.5h-11.6v-13.7h-33.8V364h12v34.3H185V364h12V398.3z"/>
	<path class="st6" d="M244,408.1h-26.2V364H244v9.6h-14.3v6.9h13.2v9.6h-13.2v8.3H244V408.1z"/>
	<path class="st6" d="M295.1,408.1h-12v-18h-13.8v18h-12V364h12v16.3h13.8V364h12V408.1z"/>
	<path class="st6" d="M337.3,408.1l-2.2-8.3h-14.3l-2.2,8.3h-13.1l14.4-44.3h15.9l14.6,44.3H337.3z M332.6,390l-1.9-7.2
		c-0.4-1.6-1-3.7-1.6-6.2c-0.6-2.6-1.1-4.4-1.3-5.5c-0.2,1-0.5,2.7-1.1,5.1c-0.5,2.4-1.7,7-3.5,13.9H332.6z"/>
</g>
<g class="st5">
	<path class="st6" d="M131.2,480.9l-9-31.8h-0.3c0.4,5.4,0.6,9.6,0.6,12.6v19.2H112v-44.1h15.9l9.2,31.3h0.2l9-31.3h15.9v44.1h-10.9
		v-19.3c0-1,0-2.1,0-3.3c0-1.2,0.2-4.2,0.4-9h-0.3l-8.9,31.7H131.2z"/>
	<path class="st6" d="M203.5,480.9h-26.2v-44.1h26.2v9.6h-14.3v6.9h13.2v9.6h-13.2v8.3h14.3V480.9z"/>
	<path class="st6" d="M236.5,446c-2.8,0-5,1.2-6.6,3.5c-1.6,2.3-2.4,5.5-2.4,9.6c0,8.5,3.2,12.7,9.7,12.7c1.9,0,3.8-0.3,5.7-0.8
		c1.8-0.5,3.7-1.2,5.5-2v10.1c-3.7,1.6-7.8,2.4-12.5,2.4c-6.7,0-11.8-1.9-15.3-5.8c-3.5-3.9-5.3-9.4-5.3-16.7c0-4.6,0.9-8.6,2.6-12
		c1.7-3.5,4.2-6.1,7.4-8s7-2.8,11.4-2.8c4.8,0,9.3,1,13.7,3.1l-3.6,9.4c-1.6-0.8-3.3-1.4-4.9-1.9C240.1,446.2,238.4,446,236.5,446z"
		/>
	<path class="st6" d="M279.4,464.9l-8.7,16h-13.5l12.1-19.3c-2.2-1.2-3.9-2.9-5.1-4.9s-1.8-4.3-1.8-6.9c0-8.7,6-13,18-13H295v44.1
		h-11.9v-16H279.4z M283.1,445.8h-2.5c-1.9,0-3.4,0.4-4.5,1.1c-1.1,0.8-1.6,1.9-1.6,3.4c0,1.8,0.5,3.2,1.6,4.1
		c1,0.9,2.7,1.4,4.9,1.4h2.2V445.8z"/>
	<path class="st6" d="M346.3,471.1h9.3v23.5H344v-13.7h-33.8v-44.1h12v34.3h12.2v-34.3h12V471.1z"/>
	<path class="st6" d="M394.1,480.9l-2.2-8.3h-14.3l-2.2,8.3h-13.1l14.4-44.3h15.9l14.6,44.3H394.1z M389.5,462.9l-1.9-7.2
		c-0.4-1.6-1-3.7-1.6-6.2c-0.6-2.6-1.1-4.4-1.3-5.5c-0.2,1-0.5,2.7-1.1,5.1c-0.5,2.4-1.7,7-3.5,13.9H389.5z"/>
</g>
</svg>
